<svg width="16" height="16" viewBox="0 0 16 16" fill="none" xmlns="http://www.w3.org/2000/svg">
<g clip-path="url(#clip0_93_3)">
<path d="M8 0C3.5888 0 0 3.5888 0 8C0 12.4112 3.5888 16 8 16C12.4112 16 16 12.4112 16 8C16 3.5888 12.4112 0 8 0ZM8 14.2977C4.52746 14.2977 1.7021 11.4727 1.7021 8C1.7021 4.5273 4.52746 1.70226 8 1.70226C11.4725 1.70226 14.2979 4.5273 14.2979 8C14.2979 11.4727 11.4725 14.2977 8 14.2977Z" fill="#C7C7C7"/>
<path d="M12.1693 7.75299H8.57407V3.43022C8.57407 3.06645 8.27913 2.77151 7.91536 2.77151C7.55159 2.77151 7.25665 3.06645 7.25665 3.43022V8.4117C7.25665 8.77547 7.55159 9.0704 7.91536 9.0704H12.1693C12.5331 9.0704 12.828 8.77547 12.828 8.4117C12.828 8.04793 12.5331 7.75299 12.1693 7.75299Z" fill="#C7C7C7"/>
</g>
<defs>
<clipPath id="clip0_93_3">
<rect width="16" height="16" fill="white"/>
</clipPath>
</defs>
</svg>
